<svg width="73" height="54" viewBox="0 0 73 54" fill="none" xmlns="http://www.w3.org/2000/svg">
<g clip-path="url(#clip0_2_39)">
<path d="M14.933 10.9133C17.5784 10.9133 19.7229 8.66833 19.7229 5.89906C19.7229 3.12979 17.5784 0.884859 14.933 0.884859C12.2877 0.884859 10.1432 3.12979 10.1432 5.89906C10.1432 8.66833 12.2877 10.9133 14.933 10.9133Z" fill="#FFA500"/>
<path d="M7.88913 13.2729C7.12275 12.9248 6.04927 12.5974 4.78982 12.683C4.11924 12.7302 3.45993 12.7833 2.81753 13.2729C2.05397 13.8539 1.78349 14.6916 1.69051 15.0426C1.11855 18.1013 0.662103 20.4727 0.281733 22.1215C0.281733 22.1215 0.0140652 23.2865 -2.26159e-05 25.071C-0.00847528 26.1564 0.0957742 26.5281 0.281733 26.8407C0.698731 27.5427 1.43411 27.7669 2.25402 28.0205C2.85416 28.2064 3.8234 28.4187 5.07157 28.3155C6.00982 23.3013 6.95088 18.2871 7.88913 13.2729Z" fill="#FFA500"/>
<path d="M5.63511 50.437C6.01548 50.5638 6.74804 50.8735 7.32564 51.6168C7.60176 51.9737 8.05539 52.5577 7.88915 53.0915C7.67502 53.7876 6.55927 53.9292 6.19862 53.9764C5.89432 54.0147 5.26319 54.056 4.22633 53.6814C3.31063 53.3511 1.56093 52.7228 0.845268 51.0269C0.741018 50.7791 0.464898 50.1007 0.563512 49.2571C0.650856 48.5139 0.988963 47.9948 1.12702 47.7824C1.84268 46.6763 3.33598 44.237 5.35335 40.9985C6.10564 37.6566 6.85511 34.3119 7.6074 30.9701C7.34536 30.5571 6.90583 29.7431 6.76213 28.6104C6.60998 27.3923 6.87765 26.4278 7.04389 25.9559C7.79617 22.0241 8.54564 18.0895 9.29793 14.1577C9.39373 13.8068 9.61631 13.1991 10.1432 12.683C10.7687 12.0695 11.4787 11.9279 12.1155 11.7981C12.6367 11.6919 13.4285 11.5327 14.3695 11.7981C16.0939 12.2818 16.9842 13.8097 17.1871 14.1577C17.3082 14.3672 17.2519 14.3052 18.0323 16.2224C18.6635 17.7768 18.7226 17.8683 18.8776 18.2871C19.1763 19.0835 19.5313 20.2603 19.7229 21.8265C20.4273 22.3397 21.0133 22.7409 21.4134 23.0063C23.4054 24.3366 24.4028 25.0032 24.5127 25.071C25.3862 25.599 25.744 25.7641 25.9215 26.2508C26.2258 27.0826 25.6735 27.9674 25.6397 28.0205C25.2678 28.5986 24.7353 28.8169 24.5127 28.9054C23.0673 29.4776 21.6135 28.46 21.4134 28.3155C19.9117 27.4306 18.4071 26.5458 16.9053 25.6609C15.6853 22.8087 14.4625 19.9595 13.2425 17.1073C13.0904 18.1337 13.158 18.9389 13.2425 19.4669C13.2989 19.8208 13.4679 20.3901 13.806 21.5316C14.0737 22.4341 14.2089 22.8943 14.3695 23.3013C14.7133 24.1802 15.0598 24.8026 15.2148 25.071C15.4233 25.4338 15.6205 25.7317 15.7783 25.9559C15.7783 27.3333 15.7783 28.7078 15.7783 30.0852C17.5618 32.4448 19.3481 34.8045 21.1317 37.1641C21.9769 40.8008 22.8222 44.4406 23.6675 48.0773C23.9126 48.0124 24.9776 47.7617 25.9215 48.3723C26.4258 48.6997 26.6991 49.1421 26.7668 49.2571C26.9245 49.5256 27.0823 49.794 27.0485 50.142C27.0006 50.6582 26.5723 50.9649 26.485 51.0269C25.5073 51.4752 24.7466 51.8999 24.231 52.2067C23.5069 52.6373 22.5179 53.2744 21.1317 53.6814C20.7034 53.8053 20.3287 53.882 20.0046 53.6814C19.4299 53.3246 19.4383 52.3689 19.4411 52.2067C18.4071 47.98 17.3759 43.7504 16.3418 39.5237C14.6513 37.6566 12.9607 35.7866 11.2702 33.9196C11.459 34.7071 11.6449 35.4917 11.8337 36.2792C11.552 37.754 11.2702 39.2287 10.9885 40.7035C9.20495 43.948 7.41862 47.1925 5.63511 50.437Z" fill="#FFA500"/>
<path d="M51.5612 10.9133C51.5612 10.521 51.5612 10.1257 51.5612 9.73345C54.5676 7.8664 57.5711 5.9964 60.5774 4.12934C60.6676 4.02611 61.0592 3.60433 61.7044 3.53944C62.2848 3.48045 62.7075 3.74885 62.8314 3.83439C65.9308 5.80173 69.0301 7.76611 72.1294 9.73345C72.1294 10.1257 72.1294 10.521 72.1294 10.9133C65.2743 10.9133 58.4163 10.9133 51.5612 10.9133Z" fill="#FFA500"/>
<path d="M56.9146 15.0426H54.097V22.4164H56.9146V15.0426Z" fill="#FFA500"/>
<path d="M69.5936 15.0426H66.776V22.4164H69.5936V15.0426Z" fill="#FFA500"/>
<path d="M63.395 15.0426H60.5774V22.4164H63.395V15.0426Z" fill="#FFA500"/>
<path d="M52.97 22.4164C58.9799 22.4164 64.9925 22.4164 71.0024 22.4164C71.0953 22.5521 71.208 22.7497 71.2841 23.0063C71.4363 23.5284 71.3405 23.9826 71.2841 24.1861C65.1785 24.1861 59.0757 24.1861 52.97 24.1861C52.6291 24.0387 52.4065 23.6877 52.4065 23.3013C52.4065 22.9149 52.6291 22.5639 52.97 22.4164Z" fill="#FFA500"/>
<path d="M52.6883 14.7477C58.7939 14.7477 64.8967 14.7477 71.0024 14.7477C71.0756 14.7152 71.4222 14.553 71.5659 14.1577C71.7096 13.7655 71.5997 13.2994 71.2841 12.9779C65.0855 12.9779 58.8869 12.9779 52.6883 12.9779C52.3473 13.1254 52.1247 13.4764 52.1247 13.8628C52.1247 14.2492 52.3473 14.6002 52.6883 14.7477Z" fill="#FFA500"/>
<path d="M49.0874 24.1861C49.0874 16.1251 49.0874 8.06107 49.0874 0H36.3464V24.1861H34.4756V8.09056L25.9215 7.96373C25.9215 13.1874 25.9215 18.4139 25.9215 23.6375C26.0596 23.7614 26.2568 23.9472 26.485 24.1861C27.0091 24.7318 27.35 25.0917 27.612 25.6609C27.8093 26.0856 27.8769 26.4396 27.8938 26.5458C27.9163 26.6815 27.9868 27.1386 27.8938 27.7256C27.7924 28.3656 27.55 28.8022 27.3303 29.2004C27.0288 29.746 26.7104 30.1206 26.485 30.3802C26.2652 30.6338 26.068 30.8314 25.9215 30.9701C25.8285 35.6893 25.7327 40.4086 25.6397 45.1278C25.6482 45.2193 25.6905 45.5142 25.9215 45.7177C26.2089 45.9684 26.6681 45.9773 27.0485 45.7177C30.9001 44.6352 34.7489 43.5557 38.6005 42.4732C39.1443 42.37 39.9304 42.193 40.8545 41.8833C41.8717 41.5412 41.8435 41.4468 43.1086 40.9985C44.3765 40.5501 44.6977 40.5442 45.3626 40.1136C45.7486 39.8629 45.6162 39.8806 46.4896 39.2288C47.4363 38.5209 47.6646 38.4471 47.8984 38.0489C47.9519 37.9605 48.3098 37.3293 48.1802 36.5742C48.0421 35.7749 47.442 35.3088 46.7714 34.8045C46.0416 34.2529 45.4049 33.9815 44.5173 33.6246C42.7676 32.9197 41.418 32.4448 41.418 32.4448C39.643 31.8195 38.8822 31.5865 37.7552 30.9701C36.6733 30.3772 36.2901 29.9997 36.0647 29.4953C36.0365 29.4304 35.566 28.342 36.0647 27.4306C36.1689 27.2419 36.4056 26.8909 38.037 26.2508C38.5498 26.0503 39.0964 25.8615 40.8545 25.366C42.0069 25.0415 42.593 24.8763 43.1086 24.7761C43.7538 24.6492 44.275 24.5843 45.3626 24.4811C46.3121 24.3897 47.5744 24.2835 49.0874 24.1861Z" fill="#FFA500"/>
<path d="M72.9746 26.2508C73.0113 39.6977 73.0056 49.5256 72.9746 50.6906C72.969 50.9207 72.9436 51.4015 72.6929 51.9117C72.3745 52.5606 71.8899 52.8821 71.5659 53.0915C70.791 53.593 70.019 53.6726 69.5936 53.6814C61.7044 53.6814 53.8153 53.6814 45.9261 53.6814C46.1741 53.5369 46.5657 53.3098 47.0419 53.0326C49.7186 51.4811 50.0707 51.3218 50.9977 50.7319C51.4992 50.4134 52.1783 49.9296 53.5335 48.9622C54.6803 48.1452 55.4016 47.629 56.3511 46.8975C57.695 45.8593 58.3684 45.3402 59.1686 44.5379C59.7265 43.9804 60.4309 43.2047 61.1409 42.1783C61.7833 41.2521 62.1045 40.7861 62.2679 40.1136C62.592 38.7863 62.1637 37.636 61.9862 37.1641C61.4508 35.7306 60.5042 34.9165 60.0139 34.5095C59.4842 34.0671 59.1433 33.9078 56.3511 32.7398C53.3617 31.4892 53.063 31.386 52.6883 31.265C51.1696 30.7813 49.9299 30.5483 49.0254 30.3802C47.5209 30.1029 46.036 29.6752 44.5173 29.4953C44.0694 29.4422 43.1086 29.3419 42.5451 28.6104C42.4634 28.5072 42.1422 28.0884 42.2633 27.7256C42.3732 27.3952 42.7958 27.2891 43.3903 27.1357C43.8609 27.0147 44.6131 26.8201 45.6444 26.5458C54.7535 26.4484 63.8655 26.3482 72.9746 26.2508Z" fill="#FFA500"/>
<path d="M45.9261 3.53944H43.9538V5.60411H45.9261V3.53944Z" fill="black"/>
<path d="M45.9261 8.84859H43.9538V10.9133H45.9261V8.84859Z" fill="black"/>
<path d="M45.9261 14.1577H43.9538V16.2224H45.9261V14.1577Z" fill="black"/>
<path d="M41.1363 14.1577H39.164V16.2224H41.1363V14.1577Z" fill="black"/>
<path d="M41.1363 8.84859H39.164V10.9133H41.1363V8.84859Z" fill="black"/>
<path d="M41.1363 3.24448H39.164V5.30916H41.1363V3.24448Z" fill="black"/>
<path d="M30.9931 16.5174H29.0208V18.582H30.9931V16.5174Z" fill="black"/>
<path d="M30.9931 11.5032H29.0208V13.5678H30.9931V11.5032Z" fill="black"/>
</g>
<defs>
<clipPath id="clip0_2_39">
<rect width="73" height="54" fill="white"/>
</clipPath>
</defs>
</svg>
